<svg width="24" height="24" viewBox="0 0 24 24" fill="none" xmlns="http://www.w3.org/2000/svg">
<path d="M13.1902 13.2H19.1902V14.4H13.1902V13.2ZM19.1902 7.20002H4.79023V10.8H19.1902V7.20002ZM13.1902 16.8H19.1902V15.6H13.1902V16.8ZM23.9902 2.40002V18C23.9902 19.9884 22.3786 21.6 20.3902 21.6H3.59023C1.60183 21.6 -0.00976562 19.9884 -0.00976562 18V2.40002H23.9902ZM21.5902 4.80002H2.39023V18C2.39023 18.6624 2.92903 19.2 3.59023 19.2H20.3902C21.0514 19.2 21.5902 18.6624 21.5902 18V4.80002ZM10.7902 13.2H4.79023V16.8H10.7902V13.2Z" fill="black" fill-opacity="0.54"/>
</svg>
