<svg width="40" height="42" viewBox="0 0 40 42" fill="none" xmlns="http://www.w3.org/2000/svg">
<path d="M38.2715 17.1822C38.1152 16.8436 37.959 16.5246 37.8027 16.2252C37.6465 15.9257 37.4902 15.6327 37.334 15.3463L37.373 15.4244L33.1152 26.9869C33.0371 27.2213 32.9395 27.4361 32.8223 27.6314C32.7051 27.8267 32.5684 28.0155 32.4121 28.1978C34.3132 27.9895 35.9082 27.1822 37.1973 25.7759C38.4863 24.3697 39.1309 22.703 39.1309 20.7759C39.1309 20.2811 39.0853 19.8059 38.9941 19.3502C38.903 18.8944 38.7793 18.4582 38.623 18.0416V18.0806C38.571 17.9244 38.5124 17.7746 38.4473 17.6314C38.3822 17.4882 38.3236 17.3384 38.2715 17.1822ZM13.8574 6.79156C11.9303 7.46865 10.1725 8.41917 8.58398 9.64313C6.99544 10.8671 5.62826 12.2798 4.48242 13.8814C3.33659 15.483 2.43815 17.2473 1.78711 19.1744C1.13607 21.1015 0.810547 23.1197 0.810547 25.2291C0.810547 26.5311 0.940755 27.8072 1.20117 29.0572C1.46159 30.3072 1.81315 31.4921 2.25586 32.6119L2.2168 32.4947C2.24284 32.5207 2.26237 32.5468 2.27539 32.5728C2.28841 32.5989 2.29492 32.6249 2.29492 32.6509C2.86784 34.0051 3.77279 35.1054 5.00977 35.9517C6.24674 36.7981 7.63346 37.2213 9.16992 37.2213C10.446 37.2213 11.6243 36.9218 12.7051 36.3228C13.7858 35.7239 14.6647 34.9296 15.3418 33.94C16.123 32.7681 17.054 31.7395 18.1348 30.8541C19.2155 29.9686 20.4069 29.2525 21.709 28.7056H21.7871C21.8392 28.6796 21.8848 28.6601 21.9238 28.647C21.9629 28.634 22.0085 28.6145 22.0605 28.5884C22.347 27.9114 22.7702 27.3189 23.3301 26.8111C23.89 26.3033 24.5215 25.9452 25.2246 25.7369H25.2637C25.2637 25.7108 25.2637 25.6913 25.2637 25.6783C25.2637 25.6653 25.2637 25.6457 25.2637 25.6197C25.2637 25.3072 25.2962 25.0077 25.3613 24.7213C25.4264 24.4348 25.5241 24.1483 25.6543 23.8619V23.9009L32.2168 9.64313C31.4095 9.01813 30.5501 8.45823 29.6387 7.96344C28.7012 7.46865 27.7376 7.05198 26.748 6.71344C25.7585 6.3749 24.7298 6.11448 23.6621 5.93219C22.5684 5.7499 21.4746 5.65875 20.3809 5.65875C19.209 5.65875 18.0632 5.75641 16.9434 5.95172C15.8236 6.14703 14.7428 6.44 13.7012 6.83063L13.8574 6.79156ZM8.74023 28.5103C7.82878 28.5103 7.04753 28.1848 6.39648 27.5338C5.74544 26.8827 5.41992 26.1015 5.41992 25.19C5.41992 24.2785 5.74544 23.4973 6.39648 22.8463C7.04753 22.1952 7.82878 21.8697 8.74023 21.8697C9.65169 21.8697 10.4329 22.1952 11.084 22.8463C11.735 23.4973 12.0605 24.2785 12.0605 25.19C12.0605 26.1015 11.735 26.8827 11.084 27.5338C10.4329 28.1848 9.65169 28.5103 8.74023 28.5103ZM12.9199 18.94C11.9824 18.94 11.1882 18.6145 10.5371 17.9634C9.88607 17.3124 9.56055 16.5311 9.56055 15.6197C9.56055 14.6822 9.88607 13.8879 10.5371 13.2369C11.1882 12.5858 11.9824 12.2603 12.9199 12.2603C13.8314 12.2603 14.6126 12.5858 15.2637 13.2369C15.9147 13.8879 16.2402 14.6822 16.2402 15.6197C16.2402 16.5311 15.9147 17.3124 15.2637 17.9634C14.6126 18.6145 13.8314 18.94 12.9199 18.94ZM22.9199 16.0103C21.9824 16.0103 21.1882 15.6848 20.5371 15.0338C19.8861 14.3827 19.5605 13.6015 19.5605 12.69C19.5605 11.7785 19.8861 10.9973 20.5371 10.3463C21.1882 9.69521 21.9824 9.36969 22.9199 9.36969C23.8314 9.36969 24.6126 9.69521 25.2637 10.3463C25.9147 10.9973 26.2402 11.7785 26.2402 12.69C26.2402 13.6015 25.9147 14.3827 25.2637 15.0338C24.6126 15.6848 23.8314 16.0103 22.9199 16.0103ZM37.8809 4.91656C37.8027 4.86448 37.7116 4.83193 37.6074 4.81891C37.5033 4.80589 37.3991 4.79938 37.2949 4.79938C36.9824 4.79938 36.7025 4.8775 36.4551 5.03375C36.2077 5.19 36.0189 5.39834 35.8887 5.65875V5.69781L27.1387 24.6041C27.0866 24.7603 27.041 24.9231 27.002 25.0923C26.9629 25.2616 26.9434 25.4374 26.9434 25.6197C26.9434 25.9322 27.002 26.2317 27.1191 26.5181C27.2363 26.8046 27.3991 27.052 27.6074 27.2603C27.4772 27.2343 27.347 27.2082 27.2168 27.1822C27.0866 27.1561 26.9434 27.1431 26.7871 27.1431C26.0579 27.1431 25.4004 27.345 24.8145 27.7486C24.2285 28.1522 23.8053 28.6666 23.5449 29.2916V29.3306C22.8678 30.9452 22.7702 32.2668 23.252 33.2955C23.7337 34.3241 23.6491 35.6457 22.998 37.2603C24.5866 37.078 26.0059 36.5181 27.2559 35.5806C28.5059 34.6431 29.4303 33.4713 30.0293 32.065L30.0684 32.0259C30.1465 31.8176 30.2116 31.6028 30.2637 31.3814C30.3158 31.1601 30.3418 30.9322 30.3418 30.6978C30.3418 30.1509 30.2246 29.6366 29.9902 29.1548C29.7559 28.6731 29.4303 28.2759 29.0137 27.9634C29.0658 27.9634 29.1178 27.9634 29.1699 27.9634C29.222 27.9634 29.2741 27.9634 29.3262 27.9634C29.821 27.9634 30.2702 27.8202 30.6738 27.5338C31.0775 27.2473 31.3704 26.8827 31.5527 26.44V26.4009L38.7402 6.86969C38.7663 6.79156 38.7923 6.70693 38.8184 6.61578C38.8444 6.52464 38.8574 6.42698 38.8574 6.32281C38.8574 6.01031 38.7663 5.72386 38.584 5.46344C38.4017 5.20302 38.1673 5.02073 37.8809 4.91656Z" fill="#EF2E73"/>
</svg>
