<svg width="40" height="42" viewBox="0 0 40 42" fill="none" xmlns="http://www.w3.org/2000/svg">
<path d="M36.6748 9.76031H28.3154V8.11969C28.3154 7.18219 27.9899 6.38792 27.3389 5.73688C26.6878 5.08583 25.9066 4.76031 24.9951 4.76031H14.9951C14.0837 4.76031 13.3024 5.08583 12.6514 5.73688C12.0003 6.38792 11.6748 7.18219 11.6748 8.11969V9.76031H3.31543C2.40397 9.76031 1.62272 10.0858 0.97168 10.7369C0.320638 11.3879 -0.00488281 12.1822 -0.00488281 13.1197V18.1197C-0.00488281 19.0311 0.320638 19.8124 0.97168 20.4634C1.62272 21.1145 2.40397 21.44 3.31543 21.44H16.6748V20.6197C16.6748 20.3853 16.7529 20.1835 16.9092 20.0142C17.0654 19.8449 17.2607 19.7603 17.4951 19.7603H22.4951C22.7295 19.7603 22.9248 19.8449 23.0811 20.0142C23.2373 20.1835 23.3154 20.3853 23.3154 20.6197V21.44H36.6748C37.5863 21.44 38.3675 21.1145 39.0186 20.4634C39.6696 19.8124 39.9951 19.0311 39.9951 18.1197V13.1197C39.9951 12.1822 39.6696 11.3879 39.0186 10.7369C38.3675 10.0858 37.5863 9.76031 36.6748 9.76031ZM24.9951 9.76031H14.9951V8.11969H24.9951V9.76031ZM39.5264 22.3384C39.3962 22.2603 39.2529 22.2278 39.0967 22.2408C38.9404 22.2538 38.7972 22.3124 38.667 22.4166C38.3545 22.6509 38.029 22.8267 37.6904 22.9439C37.3519 23.0611 37.0133 23.1197 36.6748 23.1197H23.3154V25.6197C23.3154 25.8541 23.2373 26.0494 23.0811 26.2056C22.9248 26.3619 22.7295 26.44 22.4951 26.44H17.4951C17.2607 26.44 17.0654 26.3619 16.9092 26.2056C16.7529 26.0494 16.6748 25.8541 16.6748 25.6197V23.1197H3.31543C2.97689 23.1197 2.63835 23.0611 2.2998 22.9439C1.96126 22.8267 1.63574 22.6509 1.32324 22.4166C1.19303 22.3124 1.0498 22.2538 0.893555 22.2408C0.737305 22.2278 0.594076 22.2603 0.463867 22.3384C0.307617 22.4166 0.19043 22.5207 0.112305 22.6509C0.0341797 22.7811 -0.00488281 22.9244 -0.00488281 23.0806V34.7603C-0.00488281 35.6978 0.320638 36.4921 0.97168 37.1431C1.62272 37.7942 2.40397 38.1197 3.31543 38.1197H36.6748C37.5863 38.1197 38.3675 37.7942 39.0186 37.1431C39.6696 36.4921 39.9951 35.6978 39.9951 34.7603V23.0806C39.9951 22.9244 39.9561 22.7811 39.8779 22.6509C39.7998 22.5207 39.6826 22.4166 39.5264 22.3384Z" fill="#6FCF97"/>
</svg>
