<svg width="28" height="20" viewBox="0 0 28 20" fill="none" xmlns="http://www.w3.org/2000/svg">
<g clip-path="url(#clip0_95_3252)">
<path d="M5.45115 0.644443C5.51169 0.683828 5.57223 0.723214 5.6346 0.763793C6.42904 1.28905 6.42904 1.28905 6.51537 1.60141C6.52703 1.65556 6.5387 1.70971 6.55072 1.7655C6.61298 2.02784 6.67353 2.12995 6.87207 2.26344C6.96359 2.31451 7.05613 2.36299 7.14943 2.40915C7.19811 2.43493 7.2468 2.46071 7.29696 2.48727C8.10379 2.90202 8.88922 3.08007 9.76326 3.01468C12.5149 2.84845 12.5149 2.84845 13.2417 3.36746C13.4057 3.48385 13.5242 3.56199 13.7127 3.59859C13.9443 3.4954 14.1402 3.35783 14.3498 3.20283C14.6888 2.954 15.0558 2.82885 15.4361 2.69894C15.4834 2.6819 15.5308 2.66486 15.5795 2.64731C16.4216 2.39237 17.2346 2.5789 18.0576 2.82665C19.2275 3.17163 20.1391 2.85902 21.1644 2.1572C21.2957 2.0761 21.2957 2.0761 21.4106 2.0761C21.4153 2.00331 21.4201 1.93052 21.425 1.85552C21.4828 1.50106 21.6019 1.32569 21.8475 1.12073C21.9032 1.08327 21.9589 1.04582 22.0163 1.00722C22.078 0.965563 22.1397 0.923903 22.2033 0.88098C22.2675 0.838606 22.3318 0.796232 22.398 0.752574C22.4611 0.709665 22.5242 0.666756 22.5893 0.622546C23.5577 -0.0244072 23.5577 -0.0244072 24.0846 0.141091C24.3486 0.265694 24.5362 0.461105 24.7425 0.692021C24.7724 0.725251 24.8024 0.758481 24.8332 0.792718C26.2544 2.38648 27.3569 4.70239 27.4518 7.08359C27.4544 7.34494 27.456 7.60626 27.4569 7.86763C27.4587 8.00244 27.4587 8.00244 27.4605 8.13998C27.4627 8.79812 27.4374 9.4168 27.1542 9.9943C26.9146 10.2443 26.6577 10.388 26.369 10.5406C26.3148 10.5712 26.2606 10.6017 26.2048 10.6332C25.8515 10.8242 25.4215 11.045 25.0323 10.8893C24.9983 10.8699 24.9643 10.8504 24.9292 10.8304C24.7075 10.7071 24.6312 10.7288 24.3978 10.7958C24.2364 10.8717 24.2364 10.8717 24.0763 10.9696C24.0163 11.0048 23.9564 11.04 23.8946 11.0762C23.832 11.1136 23.7694 11.1509 23.7049 11.1894C23.576 11.2651 23.4471 11.3407 23.3182 11.4162C23.2567 11.4525 23.1951 11.4888 23.1317 11.5262C22.9249 11.6479 22.7176 11.7679 22.5093 11.8858C22.4549 11.9168 22.4006 11.9479 22.3446 11.9799C22.2149 12.0415 22.2149 12.0415 22.0425 12.0415C22.0484 12.1186 22.0544 12.1957 22.0605 12.2751C22.0585 12.7247 21.8923 13.0955 21.6521 13.4315C21.3559 13.7697 21.0198 13.9792 20.6063 13.9792C20.6111 14.0691 20.6158 14.1591 20.6207 14.2517C20.6193 14.7827 20.4248 15.2197 20.1293 15.6052C19.8277 15.9275 19.5064 16.0215 19.1127 16.0553C19.1186 16.1438 19.1246 16.2323 19.1307 16.3235C19.1295 16.7807 18.9798 17.1554 18.733 17.4989C18.381 17.8919 18.0172 18.0206 17.5437 18.0004C17.4957 17.9967 17.4957 17.9967 17.4468 17.9931C17.4383 18.0533 17.4383 18.0533 17.4297 18.1147C17.3497 18.6185 17.2035 18.9758 16.8588 19.3009C16.5474 19.535 16.2021 19.6309 15.8383 19.5848C15.5102 19.4919 15.2178 19.3584 14.9191 19.1695C14.8812 19.1695 14.8433 19.1695 14.8042 19.1695C14.7663 19.2309 14.7284 19.2923 14.6893 19.3555C14.436 19.7268 14.1267 19.9012 13.7338 19.9643C13.2701 19.9846 12.8793 19.937 12.5063 19.5848C12.3741 19.4113 12.2634 19.232 12.1617 19.0311C12.1119 19.054 12.0621 19.0768 12.0109 19.1003C11.5398 19.2595 10.9896 19.2626 10.5516 18.9854C10.323 18.7984 10.0807 18.5817 9.99663 18.2547C9.99071 18.2141 9.98479 18.1734 9.97868 18.1315C9.9147 18.1657 9.85072 18.2 9.7848 18.2353C9.37468 18.4183 8.95968 18.393 8.55216 18.208C8.17012 17.9733 7.9188 17.6237 7.73826 17.1626C7.67905 16.9382 7.6731 16.7313 7.67363 16.4965C7.67348 16.43 7.67333 16.3634 7.67318 16.2949C7.68081 16.1245 7.68081 16.1245 7.73826 15.9861C7.63517 15.9754 7.63517 15.9754 7.53001 15.9645C7.15689 15.9067 6.84418 15.6984 6.58932 15.3633C6.32202 14.8872 6.18815 14.4228 6.24464 13.8408C6.28058 13.7249 6.31773 13.6096 6.35594 13.4948C6.42539 13.2404 6.42539 13.2404 6.35302 12.9963C6.24679 12.8476 6.13871 12.7227 6.01485 12.5951C5.98757 12.564 5.96029 12.5328 5.93219 12.5007C5.6476 12.1855 5.33211 11.9851 4.98799 11.7777C4.87014 11.7059 4.75233 11.6339 4.63456 11.5619C4.57658 11.5265 4.51861 11.4912 4.45888 11.4547C4.3046 11.3577 4.15411 11.2559 4.00399 11.15C3.96062 11.12 3.91725 11.09 3.87257 11.0591C3.79278 11.0035 3.71367 10.9464 3.63544 10.8877C3.49088 10.7887 3.37287 10.7086 3.20599 10.7604C3.12973 10.8005 3.05372 10.8413 2.97795 10.8827C2.52707 11.0721 2.03907 10.7739 1.63453 10.5493C1.57973 10.5212 1.52493 10.4932 1.46848 10.4643C1.10513 10.2658 0.852448 10.0572 0.672298 9.61936C0.514923 9.08294 0.535181 8.49414 0.535862 7.93251C0.535912 7.88687 0.535963 7.84124 0.536015 7.79422C0.545533 5.16706 1.5183 2.79947 3.03121 0.942886C3.07993 0.882352 3.07993 0.882352 3.12964 0.820596C3.90897 -0.116623 4.53462 0.0292251 5.45115 0.644443ZM3.45263 1.90688C2.17147 3.55804 1.3088 5.83039 1.36567 8.11994C1.3722 8.29003 1.38228 8.45919 1.39397 8.62887C1.39676 8.68195 1.39955 8.73503 1.40242 8.78972C1.42615 9.05935 1.45594 9.18199 1.62578 9.36444C1.83875 9.49139 2.05162 9.60427 2.27363 9.70586C2.31317 9.72442 2.35272 9.74297 2.39346 9.76209C2.48981 9.80723 2.58635 9.85176 2.68294 9.89617C2.68856 9.80732 2.69419 9.71847 2.69999 9.62692C2.90139 6.66632 3.76916 4.37289 5.55012 2.30102C5.6832 2.16382 5.6832 2.16382 5.67017 2.0069C5.44168 1.85672 5.21306 1.70687 4.9844 1.55707C4.91912 1.51416 4.85384 1.47125 4.78659 1.42704C4.72457 1.38645 4.66255 1.34586 4.59865 1.30404C4.54119 1.26635 4.48373 1.22866 4.42453 1.18983C4.09058 0.982596 3.68882 1.62748 3.45263 1.90688ZM21.7553 2.97576C21.7092 3.01091 21.6632 3.04605 21.6157 3.08227C21.2272 3.36906 20.8422 3.59501 20.4089 3.76728C20.3661 3.78433 20.3234 3.80138 20.2793 3.81895C19.3798 4.16072 18.4557 4.05685 17.5612 3.74619C16.5128 3.38485 15.5085 3.63129 14.5565 4.24522C13.9556 4.64804 13.3754 5.09539 12.7936 5.53631C12.7429 5.57456 12.6923 5.61281 12.6401 5.65222C12.4183 5.81979 12.1969 5.98822 11.9763 6.15807C11.7714 6.31536 11.5642 6.4676 11.3561 6.61871C11.2978 6.6617 11.2395 6.70468 11.1794 6.74897C11.0658 6.8327 10.9517 6.9154 10.8371 6.99693C10.5385 7.20949 10.5385 7.20949 10.3653 7.55621C10.3911 7.87993 10.5275 8.02793 10.7255 8.23527C11.0755 8.55404 11.4488 8.58119 11.8744 8.51209C12.3982 8.35264 12.8738 8.05604 13.3569 7.77276C14.3765 7.18482 15.4256 6.92316 16.5276 7.33562C17.2686 7.66786 17.949 8.178 18.626 8.66266C18.9901 8.92319 19.3579 9.1753 19.7264 9.42684C20.2048 9.75394 20.683 10.0818 21.1521 10.4282C21.2057 10.467 21.2057 10.467 21.2604 10.5065C21.4692 10.6636 21.6123 10.8316 21.7553 11.0726C22.0318 10.9699 22.2864 10.8357 22.5467 10.6858C22.5887 10.6619 22.6306 10.638 22.6737 10.6134C22.8069 10.5375 22.9399 10.4612 23.073 10.3849C23.2058 10.3089 23.3387 10.233 23.4716 10.1572C23.554 10.1101 23.6363 10.063 23.7186 10.0158C23.9619 9.87664 24.2071 9.74542 24.4553 9.61936C24.4036 7.33367 23.709 5.35958 22.4339 3.6678C22.4059 3.63041 22.3779 3.59303 22.3491 3.55451C22.1672 3.31898 21.9827 3.1446 21.7553 2.97576ZM8.08294 11.9031C7.97456 12.08 7.88728 12.2687 7.79929 12.4611C7.74922 12.5677 7.6991 12.6743 7.64894 12.7809C7.62497 12.8323 7.601 12.8838 7.57629 12.9368C7.49025 13.1179 7.39716 13.2931 7.30381 13.4688C7.17342 13.7321 7.10133 13.9423 7.10634 14.256C7.20509 14.6129 7.34666 14.7781 7.62336 14.9481C7.84061 14.9917 7.93851 14.967 8.1332 14.8424C8.35575 14.6302 8.46505 14.4096 8.59996 14.1133C8.63677 14.0346 8.63677 14.0346 8.67432 13.9544C8.72321 13.8496 8.7718 13.7446 8.82004 13.6394C8.87822 13.5141 8.93924 13.3907 9.00074 13.2677C9.18797 12.8872 9.30059 12.6239 9.23187 12.1799C9.11572 11.9372 8.99766 11.786 8.7723 11.6955C8.47911 11.6693 8.3167 11.6862 8.08294 11.9031ZM9.96198 13.3365C9.71078 13.7935 9.48275 14.2648 9.25701 14.7405C9.21987 14.8183 9.18273 14.896 9.14447 14.9762C9.07225 15.1277 9.0003 15.2794 8.92865 15.4314C8.86644 15.5627 8.80345 15.6935 8.73937 15.8235C8.71313 15.8775 8.6869 15.9315 8.65987 15.9872C8.63715 16.0331 8.61443 16.079 8.59102 16.1262C8.49961 16.3839 8.5256 16.6261 8.59996 16.8858C8.71835 17.0997 8.80403 17.2006 9.00904 17.2775C9.24543 17.327 9.3559 17.3339 9.57143 17.1872C9.76498 17.0094 9.85032 16.8625 9.96746 16.6074C9.98629 16.567 10.0051 16.5267 10.0245 16.4852C10.0842 16.3568 10.1428 16.2277 10.2013 16.0986C10.24 16.0147 10.2789 15.9308 10.3178 15.8469C10.3956 15.679 10.4728 15.5108 10.5497 15.3423C10.6304 15.1665 10.7131 14.9925 10.7976 14.8193C10.8292 14.7542 10.8292 14.7542 10.8614 14.6877C10.92 14.5675 10.9789 14.4476 11.0379 14.3278C11.1693 14.02 11.2067 13.8589 11.124 13.5251C10.9963 13.2521 10.9005 13.1476 10.668 13.0104C10.3627 12.9578 10.1517 13.0332 9.96198 13.3365ZM11.8239 14.6964C11.792 14.7638 11.7601 14.8311 11.7272 14.9005C11.6888 14.9806 11.6503 15.0607 11.6119 15.1408C11.5905 15.1861 11.569 15.2315 11.547 15.2782C11.4604 15.4571 11.3698 15.6327 11.2789 15.8085C11.2105 15.9427 11.1421 16.0769 11.0738 16.2111C11.0404 16.2749 11.0071 16.3387 10.9728 16.4044C10.7836 16.7816 10.6371 17.1262 10.668 17.5778C10.7587 17.8004 10.8373 17.9358 10.9984 18.0882C11.1967 18.1546 11.3877 18.1926 11.5872 18.1315C11.8468 17.9 11.9988 17.691 12.1585 17.3472C12.1779 17.306 12.1973 17.2648 12.2172 17.2224C12.2783 17.0919 12.3385 16.9607 12.3986 16.8296C12.4393 16.7424 12.4801 16.6553 12.5209 16.5683C12.6327 16.3292 12.7423 16.0888 12.851 15.8477C12.8772 15.7897 12.9034 15.7317 12.9304 15.672C13.0712 15.3487 13.1129 15.1668 13.0234 14.8097C12.8981 14.5755 12.7858 14.4144 12.5638 14.3252C12.2598 14.2771 12.0144 14.4078 11.8239 14.6964ZM13.8625 15.872C13.6331 16.1897 13.4635 16.5234 13.2998 16.8944C13.2512 17.0028 13.2025 17.1111 13.1537 17.2194C13.1313 17.2698 13.1089 17.3201 13.0858 17.372C13.0341 17.4852 12.9783 17.5956 12.9215 17.7052C12.8164 17.9281 12.8254 18.0873 12.851 18.3391C12.9674 18.5954 13.051 18.7303 13.2531 18.8927C13.3723 18.9223 13.3723 18.9223 13.5009 18.923C13.5645 18.9271 13.5645 18.9271 13.6295 18.9314C13.9159 18.8527 14.0623 18.6438 14.2167 18.3583C14.3266 18.1307 14.4315 17.9007 14.5349 17.6687C14.5713 17.5889 14.6076 17.5091 14.645 17.4269C14.9203 16.878 14.9203 16.878 14.9766 16.263C14.8343 15.9267 14.6942 15.7749 14.4021 15.6401C14.1792 15.6401 14.0271 15.6796 13.8625 15.872Z" fill="black" fill-opacity="0.54"/>
</g>
<defs>
<clipPath id="clip0_95_3252">
<rect width="27" height="20" fill="white" transform="translate(0.5)"/>
</clipPath>
</defs>
</svg>
