<svg width="40" height="42" viewBox="0 0 40 42" fill="none" xmlns="http://www.w3.org/2000/svg">
<path d="M8.94043 6.17438L15.1123 12.3853H4.40918C4.64355 11.0051 5.15788 9.78115 5.95215 8.71344C6.74642 7.64573 7.72949 6.8124 8.90137 6.21344L8.94043 6.17438ZM17.2607 5.23688H12.8467C12.7165 5.23688 12.5863 5.23688 12.4561 5.23688C12.3258 5.23688 12.1826 5.23688 12.0264 5.23688L19.1357 12.3853H24.4092L17.2607 5.23688ZM27.1436 5.23688H21.3232L28.4717 12.3853H35.5811C35.3988 11.3436 35.0602 10.3931 34.5654 9.53375C34.0446 8.64834 33.4131 7.88662 32.6709 7.2486C31.9287 6.61057 31.0889 6.12229 30.1514 5.78375C29.2139 5.41917 28.2113 5.23688 27.1436 5.23688ZM17.8076 28.9869L24.9561 25.0416C25.1904 24.9114 25.3727 24.7356 25.5029 24.5142C25.6331 24.2929 25.6982 24.052 25.6982 23.7916C25.6982 23.5311 25.6331 23.2903 25.5029 23.0689C25.3727 22.8476 25.2035 22.6718 24.9951 22.5416H24.9561L17.8076 18.6353C17.7295 18.5572 17.6318 18.5051 17.5146 18.4791C17.3975 18.453 17.2738 18.44 17.1436 18.44C16.7529 18.44 16.4144 18.5767 16.1279 18.8502C15.8415 19.1236 15.6982 19.4686 15.6982 19.8853V27.7369C15.6982 28.1275 15.8415 28.4595 16.1279 28.733C16.4144 29.0064 16.7529 29.1431 17.1436 29.1431C17.2738 29.1431 17.3975 29.1301 17.5146 29.1041C17.6318 29.078 17.7425 29.039 17.8467 28.9869H17.8076ZM35.6982 15.2369V28.0884C35.6982 29.2603 35.4769 30.3671 35.0342 31.4088C34.5915 32.4504 33.9795 33.3619 33.1982 34.1431C32.417 34.9244 31.5055 35.5364 30.4639 35.9791C29.4222 36.4218 28.3154 36.6431 27.1436 36.6431H12.8467C11.6748 36.6431 10.568 36.4218 9.52637 35.9791C8.4847 35.5364 7.57324 34.9244 6.79199 34.1431C6.01074 33.3619 5.39876 32.4504 4.95605 31.4088C4.51335 30.3671 4.29199 29.2603 4.29199 28.0884V15.2369H35.6982Z" fill="#43C9FF"/>
</svg>
