<svg width="40" height="42" viewBox="0 0 40 42" fill="none" xmlns="http://www.w3.org/2000/svg">
<path d="M10.3859 27.3853L13.6671 33.0884C13.9015 33.4791 13.9601 33.9022 13.8429 34.358C13.7257 34.8137 13.4718 35.1588 13.0812 35.3931C12.6645 35.6275 12.2348 35.6861 11.7921 35.5689C11.3494 35.4517 11.0109 35.1848 10.7765 34.7681L7.02649 28.3228C7.59941 28.1666 8.16582 28.0103 8.72571 27.8541C9.28561 27.6978 9.83899 27.5416 10.3859 27.3853ZM33.7062 21.4478C33.602 21.3957 33.5369 21.3176 33.5109 21.2134C33.4848 21.1093 33.4978 21.0051 33.5499 20.9009C33.602 20.8228 33.6801 20.7707 33.7843 20.7447C33.8885 20.7186 33.9926 20.7317 34.0968 20.7838L37.6515 22.8541C37.7557 22.9061 37.8208 22.9843 37.8468 23.0884C37.8728 23.1926 37.8598 23.2838 37.8077 23.3619C37.7557 23.466 37.6775 23.5311 37.5734 23.5572C37.4692 23.5832 37.365 23.5702 37.2609 23.5181L33.7062 21.4478ZM31.7921 12.1509C31.74 12.2551 31.6619 12.3202 31.5577 12.3463C31.4536 12.3723 31.3494 12.3593 31.2452 12.3072C31.1411 12.2551 31.076 12.177 31.0499 12.0728C31.0239 11.9686 31.0369 11.8775 31.089 11.7994L33.1593 8.20563C33.2114 8.10146 33.2895 8.03636 33.3937 8.01031C33.4978 7.98427 33.602 7.99729 33.7062 8.04938C33.7843 8.10146 33.8429 8.17959 33.882 8.28375C33.921 8.38792 33.9145 8.49209 33.8624 8.59625L31.7921 12.1509ZM34.6437 16.4088C34.5395 16.4348 34.4419 16.4218 34.3507 16.3697C34.2596 16.3176 34.201 16.2395 34.1749 16.1353C34.1489 16.0311 34.1619 15.9335 34.214 15.8423C34.2661 15.7512 34.3442 15.6926 34.4484 15.6666L38.4327 14.5728C38.5369 14.5468 38.6411 14.5598 38.7452 14.6119C38.8494 14.664 38.9145 14.7421 38.9406 14.8463C38.9666 14.9504 38.9536 15.0546 38.9015 15.1588C38.8494 15.2629 38.7713 15.328 38.6671 15.3541L34.6437 16.4088ZM23.4718 6.33063C23.0812 6.43479 22.7817 6.66266 22.5734 7.01422C22.365 7.36578 22.3129 7.7499 22.4171 8.16656L28.0031 28.9478C28.1072 29.3384 28.3351 29.6379 28.6866 29.8463C29.0382 30.0546 29.4223 30.1067 29.839 30.0025C30.2296 29.8983 30.5291 29.664 30.7374 29.2994C30.9458 28.9348 30.9978 28.5572 30.8937 28.1666L25.3077 7.38531C25.2036 6.96865 24.9692 6.65615 24.6046 6.44781C24.24 6.23948 23.8624 6.20042 23.4718 6.33063ZM12.1827 26.1353L10.1515 18.4791C9.10983 18.7916 8.06165 19.0715 7.00696 19.3189C5.95227 19.5663 4.9041 19.8332 3.86243 20.1197C2.84681 20.4061 2.07858 21.0116 1.55774 21.9361C1.03691 22.8606 0.919722 23.8697 1.20618 24.9634C1.49264 26.0572 2.09811 26.8775 3.02259 27.4244C3.94707 27.9713 4.91712 28.1015 5.93274 27.815C6.97441 27.5546 8.01608 27.2681 9.05774 26.9556C10.0994 26.6431 11.1411 26.3697 12.1827 26.1353ZM10.8937 18.2447C12.2999 17.7499 13.602 17.19 14.7999 16.565C15.9718 15.94 17.0265 15.2759 17.964 14.5728C18.9015 13.8697 19.7218 13.1405 20.4249 12.3853C21.1281 11.6561 21.701 10.927 22.1437 10.1978L26.7531 27.3072C25.9718 26.8905 25.0994 26.539 24.1359 26.2525C23.1463 25.94 22.0721 25.7186 20.9132 25.5884C19.7544 25.4582 18.4978 25.4061 17.1437 25.4322C15.8156 25.4843 14.4223 25.6666 12.964 25.9791L10.8937 18.2447ZM28.2374 15.1978L30.2296 15.2369C30.3077 15.2369 30.3794 15.2629 30.4445 15.315C30.5096 15.3671 30.5551 15.4322 30.5812 15.5103L31.4015 18.4791C31.4275 18.5572 31.421 18.6353 31.382 18.7134C31.3429 18.7916 31.2843 18.8567 31.2062 18.9088L29.4874 19.9244L28.2374 15.1978Z" fill="#FF3636"/>
</svg>
