<svg width="40" height="42" viewBox="0 0 40 42" fill="none" xmlns="http://www.w3.org/2000/svg">
<path d="M37.4609 29.8072H2.53906C2.35677 29.8072 2.20052 29.8723 2.07031 30.0025C1.9401 30.1327 1.875 30.289 1.875 30.4713V30.9791C1.875 31.8645 2.1875 32.6132 2.8125 33.2252C3.4375 33.8371 4.17969 34.1431 5.03906 34.1431H34.9609C35.8203 34.1431 36.5625 33.8371 37.1875 33.2252C37.8125 32.6132 38.125 31.8645 38.125 30.9791V30.4713C38.125 30.289 38.0599 30.1327 37.9297 30.0025C37.7995 29.8723 37.6432 29.8072 37.4609 29.8072ZM24.2578 32.3463H15.7422C15.638 32.3463 15.5469 32.3137 15.4688 32.2486C15.3906 32.1835 15.3516 32.0989 15.3516 31.9947C15.3516 31.8905 15.3906 31.7994 15.4688 31.7213C15.5469 31.6431 15.638 31.6041 15.7422 31.6041H24.2578C24.362 31.6041 24.4531 31.6431 24.5312 31.7213C24.6094 31.7994 24.6484 31.8905 24.6484 31.9947C24.6484 32.0989 24.6094 32.1835 24.5312 32.2486C24.4531 32.3137 24.362 32.3463 24.2578 32.3463ZM7.1875 26.4088H32.8125V11.1353H7.1875V26.4088ZM20.3125 24.5338H9.92188C9.81771 24.5338 9.72656 24.4947 9.64844 24.4166C9.57031 24.3384 9.53125 24.2473 9.53125 24.1431C9.53125 24.039 9.57031 23.9478 9.64844 23.8697C9.72656 23.7916 9.81771 23.7525 9.92188 23.7525H20.3125C20.4167 23.7525 20.5013 23.7916 20.5664 23.8697C20.6315 23.9478 20.6641 24.039 20.6641 24.1431C20.6641 24.2473 20.6315 24.3384 20.5664 24.4166C20.5013 24.4947 20.4167 24.5338 20.3125 24.5338ZM9.53125 21.565C9.53125 21.4608 9.57031 21.3697 9.64844 21.2916C9.72656 21.2134 9.81771 21.1744 9.92188 21.1744H13.75C13.8542 21.1744 13.9388 21.2134 14.0039 21.2916C14.069 21.3697 14.1016 21.4608 14.1016 21.565C14.1016 21.6692 14.069 21.7603 14.0039 21.8384C13.9388 21.9166 13.8542 21.9556 13.75 21.9556H9.92188C9.81771 21.9556 9.72656 21.9166 9.64844 21.8384C9.57031 21.7603 9.53125 21.6692 9.53125 21.565ZM25.6641 21.1744H29.6094C29.7135 21.1744 29.8047 21.2134 29.8828 21.2916C29.9609 21.3697 30 21.4608 30 21.565C30 21.6692 29.9609 21.7603 29.8828 21.8384C29.8047 21.9166 29.7135 21.9556 29.6094 21.9556H25.6641C25.5599 21.9556 25.4688 21.9166 25.3906 21.8384C25.3125 21.7603 25.2734 21.6692 25.2734 21.565C25.2734 21.4608 25.3125 21.3697 25.3906 21.2916C25.4688 21.2134 25.5599 21.1744 25.6641 21.1744ZM24.3359 21.565C24.3359 21.6692 24.2969 21.7603 24.2188 21.8384C24.1406 21.9166 24.0495 21.9556 23.9453 21.9556H16.0547C15.9505 21.9556 15.8594 21.9166 15.7812 21.8384C15.7031 21.7603 15.6641 21.6692 15.6641 21.565C15.6641 21.4608 15.7031 21.3697 15.7812 21.2916C15.8594 21.2134 15.9505 21.1744 16.0547 21.1744H23.9453C24.0495 21.1744 24.1406 21.2134 24.2188 21.2916C24.2969 21.3697 24.3359 21.4608 24.3359 21.565ZM14.4141 15.0416L16.0547 16.3697C16.1068 16.3957 16.1458 16.4348 16.1719 16.4869C16.1979 16.539 16.2109 16.591 16.2109 16.6431C16.2109 16.6952 16.1979 16.7473 16.1719 16.7994C16.1458 16.8515 16.1068 16.9035 16.0547 16.9556L14.4141 18.2447C14.388 18.2707 14.3555 18.2903 14.3164 18.3033C14.2773 18.3163 14.2318 18.3228 14.1797 18.3228C14.1276 18.3228 14.0755 18.3098 14.0234 18.2838C13.9714 18.2577 13.9323 18.2317 13.9062 18.2056C13.8281 18.1015 13.7956 17.9973 13.8086 17.8931C13.8216 17.789 13.8672 17.7108 13.9453 17.6588L15.2344 16.6431L13.9453 15.6275C13.8672 15.5754 13.8216 15.4973 13.8086 15.3931C13.7956 15.289 13.8281 15.1978 13.9062 15.1197C13.9583 15.0155 14.0365 14.9634 14.1406 14.9634C14.2448 14.9634 14.3359 14.9895 14.4141 15.0416ZM13.6719 12.3463C13.776 12.3723 13.8477 12.4309 13.8867 12.522C13.9258 12.6132 13.9323 12.7108 13.9062 12.815L11.8359 18.9478C11.8099 19.0259 11.7643 19.091 11.6992 19.1431C11.6341 19.1952 11.5625 19.2213 11.4844 19.2213C11.4583 19.2213 11.4388 19.2147 11.4258 19.2017C11.4128 19.1887 11.3932 19.1822 11.3672 19.1822C11.263 19.1561 11.1914 19.0976 11.1523 19.0064C11.1133 18.9153 11.1068 18.8176 11.1328 18.7134L13.2031 12.5806C13.2292 12.4765 13.2878 12.4048 13.3789 12.3658C13.4701 12.3267 13.5677 12.3202 13.6719 12.3463ZM8.98438 14.5728L10.625 13.2838C10.7031 13.2056 10.7943 13.1731 10.8984 13.1861C11.0026 13.1991 11.0938 13.2447 11.1719 13.3228C11.224 13.4009 11.2435 13.4921 11.2305 13.5963C11.2174 13.7004 11.1719 13.7916 11.0938 13.8697L9.80469 14.8853L11.0938 15.9009C11.1719 15.953 11.2174 16.0311 11.2305 16.1353C11.2435 16.2395 11.224 16.3306 11.1719 16.4088C11.1198 16.4608 11.0677 16.4999 11.0156 16.5259C10.9635 16.552 10.9115 16.565 10.8594 16.565C10.8073 16.565 10.7617 16.5585 10.7227 16.5455C10.6836 16.5324 10.651 16.5129 10.625 16.4869L8.98438 15.1588C8.93229 15.1327 8.89323 15.0936 8.86719 15.0416C8.84115 14.9895 8.82812 14.9374 8.82812 14.8853C8.82812 14.8332 8.84115 14.7811 8.86719 14.7291C8.89323 14.677 8.93229 14.6249 8.98438 14.5728ZM36.2109 10.3541C36.2109 9.6249 35.9505 9.00641 35.4297 8.4986C34.9089 7.99078 34.2839 7.73688 33.5547 7.73688H6.44531C5.71615 7.73688 5.09115 7.99078 4.57031 8.4986C4.04948 9.00641 3.78906 9.6249 3.78906 10.3541V29.065H36.2109V10.3541ZM33.5547 26.7994C33.5547 26.9035 33.5156 26.9882 33.4375 27.0533C33.3594 27.1184 33.2682 27.1509 33.1641 27.1509H6.83594C6.73177 27.1509 6.64062 27.1184 6.5625 27.0533C6.48438 26.9882 6.44531 26.9035 6.44531 26.7994V10.7447C6.44531 10.6405 6.48438 10.5559 6.5625 10.4908C6.64062 10.4257 6.73177 10.3931 6.83594 10.3931H33.1641C33.2682 10.3931 33.3594 10.4257 33.4375 10.4908C33.5156 10.5559 33.5547 10.6405 33.5547 10.7447V26.7994Z" fill="#FF9021"/>
</svg>
