<svg width="40" height="42" viewBox="0 0 40 42" fill="none" xmlns="http://www.w3.org/2000/svg">
<path d="M32.8908 9.22125C32.8908 8.10146 32.6695 7.03375 32.2268 6.01813C31.8101 5.0025 31.2307 4.1236 30.4885 3.38141C29.7463 2.63922 28.8804 2.04677 27.8908 1.60406C26.8752 1.16136 25.8075 0.940002 24.6877 0.940002C23.8023 0.940002 22.9559 1.1223 22.1486 1.48688C21.3414 1.85146 20.6252 2.3723 20.0002 3.04938C19.3492 2.3723 18.6265 1.85146 17.8322 1.48688C17.038 1.1223 16.1981 0.940002 15.3127 0.940002C14.1669 0.940002 13.0992 1.16136 12.1096 1.60406C11.12 2.04677 10.2541 2.63922 9.51193 3.38141C8.76974 4.1236 8.17729 5.0025 7.73458 6.01813C7.31792 7.03375 7.10958 8.10146 7.10958 9.22125C7.10958 11.4869 7.82573 13.3163 9.25802 14.7095C10.6903 16.1028 12.37 17.4765 14.2971 18.8306C15.1044 19.4035 15.9182 19.9895 16.7385 20.5884C17.5588 21.1874 18.3856 21.8515 19.219 22.5806L20.0002 23.2447L20.7815 22.5806C21.719 21.7473 22.6304 21.0051 23.5158 20.3541C24.4013 19.703 25.2476 19.091 26.0549 18.5181C27.9559 17.164 29.5705 15.8293 30.8986 14.5142C32.2268 13.1991 32.8908 11.4348 32.8908 9.22125ZM23.5158 12.7369H21.1721V15.0806H18.8283V12.7369H16.4846V10.3931H18.8283V8.04938H21.1721V10.3931H23.5158V12.7369ZM38.594 11.6431C37.995 11.6431 37.5002 12.2291 37.1096 13.4009C36.719 14.5468 36.4065 15.8228 36.1721 17.2291C35.9377 18.6353 35.7815 19.9374 35.7033 21.1353C35.5992 22.3332 35.5471 22.9582 35.5471 23.0103C35.4169 23.8176 35.0718 24.7486 34.5119 25.8033C33.952 26.858 33.1903 27.7499 32.2268 28.4791L27.1486 32.19L25.7424 30.315L30.8205 26.6041C31.8101 25.8489 32.4416 24.983 32.7151 24.0064C32.9885 23.0298 32.4872 22.5416 31.2111 22.5416C30.0914 22.5416 28.6851 23.0168 26.9924 23.9673C25.2997 24.9179 24.1408 25.6535 23.5158 26.1744C22.7606 26.7994 22.1812 27.5481 21.7776 28.4205C21.3739 29.2929 21.1721 30.2108 21.1721 31.1744V40.94H28.2033C28.2033 40.3671 28.3401 39.7811 28.6135 39.1822C28.8869 38.5832 29.258 37.9973 29.7268 37.4244C30.2216 36.7733 30.8075 36.1223 31.4846 35.4713C32.1617 34.8202 32.8648 34.1561 33.594 33.4791C34.9742 32.177 36.2697 30.8619 37.4807 29.5338C38.6916 28.2056 39.4013 26.8515 39.6096 25.4713C39.7138 24.5598 39.8049 23.3944 39.883 21.9752C39.9611 20.5559 40.0002 19.1431 40.0002 17.7369C40.0002 16.1744 39.9091 14.7811 39.7268 13.5572C39.5445 12.3332 39.1669 11.6952 38.594 11.6431ZM16.2111 25.94C14.5445 24.8202 13.0927 23.9739 11.8557 23.4009C10.6187 22.828 9.58354 22.5416 8.75021 22.5416C7.50021 22.5416 7.00542 23.0298 7.26583 24.0064C7.52625 24.983 8.16427 25.8489 9.1799 26.6041L14.258 30.315L12.8518 32.19L7.77365 28.4791C6.8101 27.7499 6.04839 26.858 5.48849 25.8033C4.92859 24.7486 4.58354 23.8176 4.45333 23.0103C4.45333 22.9582 4.40125 22.3332 4.29708 21.1353C4.19292 19.9374 4.03016 18.6353 3.8088 17.2291C3.58745 15.8228 3.28146 14.5468 2.89083 13.4009C2.50021 12.2291 2.00542 11.6431 1.40646 11.6431C0.755418 11.7213 0.351772 12.5546 0.195522 14.1431C0.0392718 15.7317 -0.0258324 17.4374 0.000209264 19.2603C0.0262509 20.5884 0.0848447 21.8384 0.175991 23.0103C0.267136 24.1822 0.338751 25.0025 0.390834 25.4713C0.573126 26.8515 1.27625 28.2056 2.50021 29.5338C3.72417 30.8619 5.02625 32.177 6.40646 33.4791C7.13563 34.1561 7.83224 34.8202 8.4963 35.4713C9.16037 36.1223 9.73979 36.7733 10.2346 37.4244C10.7033 37.9973 11.0809 38.5832 11.3674 39.1822C11.6539 39.7811 11.7971 40.3671 11.7971 40.94H18.8283V31.2134C18.8283 30.1718 18.594 29.1887 18.1252 28.2642C17.6565 27.3397 17.0184 26.565 16.2111 25.94Z" fill="#8346FC"/>
</svg>
