<svg width="26" height="26" viewBox="0 0 26 26" fill="none" xmlns="http://www.w3.org/2000/svg">
<g clip-path="url(#clip0_95_3256)">
<path d="M4.79518 5.57336C5.16662 5.76453 5.35062 6.02078 5.48526 6.40821C5.54174 6.65549 5.5803 6.90491 5.61839 7.15551C5.62988 7.2282 5.64141 7.30089 5.65298 7.37357C5.67706 7.52561 5.70075 7.6777 5.72411 7.82985C5.75362 8.02205 5.78387 8.21413 5.81439 8.40617C5.93569 9.17039 6.0544 9.93365 6.12003 10.7051C6.15448 10.703 6.18894 10.701 6.22444 10.6989C6.51388 10.6845 6.67761 10.7005 6.90128 10.9004C7.57027 11.5523 8.08737 12.3793 8.62993 13.1356C8.70902 13.2457 8.78843 13.3555 8.86794 13.4652C9.20074 13.9245 9.5299 14.3862 9.85616 14.8502C9.95339 14.9883 10.0508 15.1264 10.1483 15.2644C10.197 15.3333 10.2457 15.4023 10.2943 15.4713C10.419 15.6482 10.5441 15.8248 10.6696 16.001C10.7929 16.1742 10.9153 16.3478 11.0369 16.5221C11.0937 16.6035 11.1509 16.6847 11.2081 16.7659C11.238 16.8102 11.268 16.8545 11.2989 16.9002C11.3236 16.9363 11.3483 16.9724 11.3738 17.0096C11.6019 17.4785 11.6087 17.9556 11.6031 18.4663C11.6028 18.54 11.6026 18.6136 11.6025 18.6873C11.6019 18.8794 11.6005 19.0715 11.5988 19.2636C11.5973 19.4603 11.5967 19.657 11.5959 19.8538C11.5944 20.2385 11.5919 20.6231 11.5888 21.0078C11.6394 21.0061 11.69 21.0044 11.7421 21.0027C11.809 21.0013 11.8759 21 11.9428 20.9987C11.9927 20.9968 11.9927 20.9968 12.0437 20.9949C12.1969 20.9927 12.3038 20.9983 12.4395 21.0725C12.601 21.244 12.5735 21.4555 12.5748 21.6766C12.5752 21.7148 12.5756 21.753 12.576 21.7924C12.5772 21.9188 12.578 22.0452 12.5787 22.1717C12.5789 22.2149 12.5792 22.2581 12.5795 22.3026C12.5808 22.5311 12.5817 22.7597 12.5824 22.9882C12.5831 23.1774 12.5844 23.3665 12.5864 23.5557C12.5888 23.7841 12.5901 24.0126 12.5904 24.241C12.5907 24.328 12.5915 24.4151 12.5926 24.5021C12.5942 24.6239 12.5942 24.7456 12.5938 24.8674C12.5946 24.9033 12.5954 24.9392 12.5963 24.9761C12.5942 25.1461 12.567 25.253 12.4817 25.4003C12.2258 25.5593 11.9733 25.5331 11.678 25.53C11.6119 25.5302 11.5458 25.5305 11.4797 25.5309C11.3005 25.5316 11.1214 25.5307 10.9422 25.5296C10.7546 25.5286 10.567 25.5289 10.3795 25.529C10.0645 25.529 9.74956 25.528 9.4346 25.5265C9.07051 25.5247 8.70642 25.5242 8.34232 25.5246C7.99195 25.5249 7.64158 25.5244 7.29121 25.5234C7.14214 25.523 6.99308 25.5229 6.84401 25.523C6.6685 25.523 6.49301 25.5223 6.3175 25.521C6.22238 25.5205 6.12725 25.5207 6.03212 25.5209C5.97551 25.5204 5.9189 25.5198 5.86057 25.5193C5.81138 25.5191 5.76219 25.5189 5.7115 25.5187C5.56172 25.4969 5.49538 25.4585 5.3876 25.3535C5.32921 25.1783 5.33081 25.0181 5.33013 24.8357C5.32981 24.798 5.32949 24.7602 5.32916 24.7214C5.3282 24.5965 5.32763 24.4717 5.32714 24.3468C5.32694 24.3042 5.32674 24.2615 5.32654 24.2176C5.32552 23.9919 5.32482 23.7662 5.32436 23.5405C5.32382 23.3074 5.32214 23.0743 5.3202 22.8412C5.31893 22.6619 5.31852 22.4826 5.31834 22.3033C5.31811 22.2174 5.31754 22.1315 5.31663 22.0455C5.31544 21.9253 5.31549 21.805 5.31583 21.6848C5.3152 21.6493 5.31458 21.6139 5.31393 21.5774C5.31636 21.3417 5.36669 21.2221 5.53409 21.0566C5.64622 21.0006 5.70905 21.0022 5.83354 21.0031C5.87288 21.0032 5.91222 21.0034 5.95275 21.0035C5.99385 21.0039 6.03495 21.0043 6.0773 21.0048C6.11878 21.005 6.16026 21.0052 6.203 21.0054C6.30555 21.006 6.4081 21.0069 6.51065 21.0078C6.39851 20.6384 6.13844 20.4167 5.86673 20.1533C5.82176 20.1088 5.77678 20.0643 5.73045 20.0185C5.53792 19.8291 5.3443 19.6427 5.13946 19.4667C4.86621 19.2316 4.6181 18.9709 4.36546 18.7142C4.16032 18.5071 3.95222 18.3088 3.73119 18.1188C3.52624 17.9379 3.33276 17.7453 3.13846 17.5532C3.09651 17.5127 3.05456 17.4722 3.01133 17.4304C2.3766 16.802 2.01536 16.0696 1.9971 15.1736C1.99473 14.1735 2.12416 13.1929 2.24998 12.2023C2.30084 11.7994 2.34971 11.3963 2.3987 10.9932C2.41096 10.8924 2.42324 10.7916 2.43555 10.6908C2.5153 10.0367 2.58914 9.38255 2.65132 8.72659C2.65472 8.6908 2.65812 8.655 2.66162 8.61812C2.69549 8.25928 2.72762 7.9003 2.75873 7.5412C2.76389 7.48363 2.76905 7.42607 2.77436 7.36675C2.7837 7.26231 2.79262 7.15782 2.80099 7.05329C2.84998 6.50808 2.96292 6.09319 3.38565 5.72462C3.81812 5.44605 4.31258 5.38741 4.79518 5.57336ZM3.77628 6.50587C3.69113 6.67887 3.66142 6.83537 3.64391 7.0264C3.63863 7.08172 3.63335 7.13705 3.62791 7.19405C3.61978 7.28478 3.61978 7.28478 3.61148 7.37734C3.60533 7.44239 3.59914 7.50745 3.59291 7.5725C3.57945 7.71333 3.56617 7.85417 3.55302 7.99503C3.51708 8.37943 3.47988 8.76371 3.44192 9.14793C3.43792 9.18845 3.43391 9.22898 3.42979 9.27073C3.36365 9.93634 3.28721 10.6004 3.20579 11.2643C3.20022 11.3099 3.19465 11.3555 3.18891 11.4025C3.13935 11.8082 3.08962 12.2139 3.03774 12.6193C2.67663 14.548 2.67663 14.548 3.19291 16.3261C3.38312 16.5681 3.59273 16.7848 3.81118 17.0012C3.87084 17.0609 3.87084 17.0609 3.93171 17.1217C4.01526 17.2051 4.09893 17.2884 4.18272 17.3716C4.31007 17.498 4.43702 17.6249 4.56392 17.7518C4.64562 17.8333 4.72735 17.9147 4.80911 17.9961C4.8466 18.0336 4.8841 18.071 4.92273 18.1096C5.12508 18.3102 5.33186 18.5024 5.54764 18.6884C5.6455 18.7737 5.7379 18.863 5.82877 18.9557C5.87744 19.0049 5.87744 19.0049 5.9271 19.0552C5.95954 19.0882 5.99199 19.1213 6.02542 19.1554C6.20937 19.3429 6.39172 19.5282 6.59343 19.6967C6.74224 19.8217 6.86696 19.9563 6.98978 20.1076C7.02635 20.1519 7.06292 20.1963 7.10059 20.242C7.28819 20.5045 7.29866 20.6712 7.34073 21.0078C8.46866 21.0078 9.59659 21.0078 10.7587 21.0078C10.7627 20.4862 10.7668 19.9645 10.7709 19.427C10.7727 19.2632 10.7745 19.0994 10.7763 18.9306C10.7769 18.7997 10.7774 18.6688 10.7778 18.5378C10.7785 18.4877 10.7785 18.4877 10.7793 18.4366C10.7878 17.8525 10.6894 17.423 10.3253 16.9612C10.2775 16.8982 10.2297 16.8351 10.1821 16.772C10.1569 16.7387 10.1316 16.7054 10.1056 16.6711C9.96186 16.4779 9.825 16.2799 9.68753 16.0823C9.62917 15.9986 9.57081 15.9149 9.51244 15.8313C9.48394 15.7904 9.45544 15.7495 9.42608 15.7074C9.04959 15.168 8.66787 14.6324 8.28181 14.0998C8.17682 13.9549 8.07231 13.8097 7.96825 13.6641C7.45073 12.9414 6.91086 12.236 6.36417 11.5352C6.21606 11.5669 6.21606 11.5669 6.1689 11.6648C6.12329 11.778 6.07818 11.8912 6.03458 12.0051C6.01853 12.044 6.00248 12.0828 5.98594 12.1228C5.97102 12.1612 5.9561 12.1995 5.94073 12.239C5.92709 12.2737 5.91345 12.3084 5.89939 12.3442C5.83325 12.6782 5.98006 12.947 6.12975 13.2335C6.15061 13.2744 6.17147 13.3154 6.19296 13.3576C6.23767 13.4454 6.28258 13.533 6.32767 13.6206C6.44596 13.8506 6.56248 14.0815 6.67888 14.3125C6.70215 14.3586 6.72542 14.4047 6.74939 14.4523C6.95723 14.8662 7.15403 15.2844 7.34378 15.7069C7.36434 15.7524 7.36434 15.7524 7.38531 15.7988C7.91832 16.9801 7.91832 16.9801 7.78018 17.3945C7.71107 17.4041 7.64188 17.4132 7.57266 17.422C7.53414 17.4271 7.49562 17.4322 7.45593 17.4375C7.33495 17.4437 7.25818 17.4385 7.14542 17.3945C7.10041 17.3086 7.10041 17.3086 7.07084 17.1983C7.00315 16.968 6.91964 16.7513 6.82498 16.5309C6.80684 16.4886 6.7887 16.4464 6.77001 16.4029C6.56587 15.9346 6.34761 15.4729 6.12918 15.0111C6.11016 14.9708 6.09114 14.9305 6.07154 14.889C5.88497 14.4943 5.69706 14.101 5.49346 13.7147C5.46598 13.6622 5.43849 13.6096 5.41017 13.5555C5.36064 13.4618 5.31011 13.3687 5.25832 13.2762C5.07794 12.9352 5.01329 12.5908 5.12539 12.2127C5.15092 12.1527 5.17791 12.0933 5.20637 12.0347C5.48141 11.4674 5.35795 10.9243 5.25869 10.3252C5.22485 10.1164 5.19409 9.90717 5.16273 9.69801C5.09846 9.27188 5.03159 8.84622 4.96326 8.42074C4.92304 8.16991 4.88376 7.91899 4.84605 7.66778C4.83026 7.56296 4.81412 7.45819 4.79783 7.35345C4.77856 7.2294 4.75985 7.10526 4.7418 6.98104C4.73317 6.92689 4.72454 6.87274 4.71565 6.81696C4.70862 6.7706 4.70159 6.72423 4.69434 6.67647C4.6463 6.52707 4.5788 6.45968 4.45987 6.35938C4.19427 6.22658 3.9891 6.3269 3.77628 6.50587ZM6.16885 21.8379C6.16885 22.7886 6.16885 23.7393 6.16885 24.7188C7.35425 24.7214 8.53898 24.712 9.72425 24.6961C9.99267 24.6926 10.2611 24.6892 10.5295 24.6857C10.9314 24.6806 11.3333 24.6752 11.7353 24.6699C11.7353 23.7354 11.7353 22.8008 11.7353 21.8379C9.89835 21.8379 8.06143 21.8379 6.16885 21.8379Z" fill="black" fill-opacity="0.6"/>
<path d="M22.5261 5.67582C22.8061 5.87295 23.0094 6.07827 23.1121 6.40824C23.205 6.96418 23.244 7.53094 23.2977 8.09167C23.3964 9.12142 23.5039 10.1491 23.6305 11.1759C23.6417 11.2671 23.6529 11.3583 23.664 11.4496C23.7305 11.9908 23.7305 11.9908 23.799 12.5317C24.2242 15.8389 24.2242 15.8389 23.5027 16.8575C23.3183 17.0803 23.1199 17.2866 22.9168 17.4922C22.8832 17.5264 22.8497 17.5606 22.8151 17.5959C22.17 18.2529 22.17 18.2529 21.8952 18.489C21.6621 18.69 21.448 18.9087 21.2322 19.128C20.9859 19.3782 20.7386 19.622 20.4723 19.8509C20.3078 19.9947 20.1518 20.1466 19.9962 20.2998C19.9643 20.3304 19.9323 20.3609 19.8994 20.3923C19.7037 20.5854 19.589 20.7475 19.4988 21.0079C19.5594 21.0056 19.62 21.0033 19.6825 21.001C19.7626 20.9992 19.8428 20.9974 19.923 20.9956C19.9629 20.994 20.0027 20.9924 20.0438 20.9907C20.246 20.9874 20.3497 20.9903 20.5251 21.1002C20.6938 21.2798 20.6782 21.4316 20.6785 21.6666C20.6788 21.7043 20.679 21.7421 20.6793 21.7809C20.68 21.906 20.6803 22.0311 20.6806 22.1563C20.6809 22.2431 20.6811 22.33 20.6814 22.4168C20.6819 22.5991 20.6822 22.7814 20.6824 22.9637C20.6827 23.1972 20.6838 23.4307 20.6852 23.6641C20.6861 23.8436 20.6864 24.0231 20.6865 24.2026C20.6866 24.2887 20.687 24.3748 20.6876 24.4608C20.6885 24.5813 20.6884 24.7018 20.6881 24.8223C20.6887 24.8756 20.6887 24.8756 20.6894 24.9299C20.6877 25.1444 20.6562 25.2806 20.5242 25.4512C20.3969 25.5149 20.3032 25.5068 20.1606 25.5076C20.1041 25.508 20.0477 25.5084 19.9895 25.5088C19.9272 25.509 19.8649 25.5092 19.8008 25.5095C19.7347 25.5098 19.6687 25.5102 19.6027 25.5107C19.3857 25.5119 19.1686 25.5127 18.9516 25.5134C18.8769 25.5137 18.8022 25.5139 18.7275 25.5142C18.4168 25.5152 18.1061 25.5161 17.7955 25.5167C17.3501 25.5175 16.9047 25.5191 16.4593 25.5219C16.1462 25.5238 15.8331 25.5247 15.5201 25.525C15.333 25.5252 15.146 25.5258 14.959 25.5273C14.783 25.5288 14.607 25.5291 14.431 25.5285C14.3357 25.5285 14.2404 25.5297 14.1451 25.531C13.7333 25.528 13.7333 25.528 13.5278 25.4004C13.4232 25.2198 13.4104 25.0722 13.4141 24.869C13.4138 24.8308 13.4135 24.7926 13.4132 24.7532C13.4127 24.6272 13.4138 24.5014 13.4151 24.3755C13.4152 24.2877 13.4152 24.2 13.4151 24.1122C13.4152 23.9285 13.4161 23.7448 13.4176 23.5611C13.4196 23.3258 13.4198 23.0906 13.4194 22.8553C13.4193 22.6741 13.4199 22.493 13.4207 22.3119C13.421 22.2251 13.4212 22.1384 13.4211 22.0516C13.4212 21.9303 13.4223 21.809 13.4236 21.6877C13.4235 21.652 13.4233 21.6163 13.4232 21.5795C13.4267 21.365 13.4586 21.2273 13.5906 21.0567C13.7403 20.9818 13.8966 21.0028 14.0606 21.0048C14.1123 21.0051 14.1123 21.0051 14.1651 21.0055C14.2503 21.006 14.3355 21.0069 14.4207 21.0079C14.4202 20.9677 14.4198 20.9275 14.4193 20.8861C14.4154 20.5047 14.4124 20.1234 14.4105 19.742C14.4095 19.546 14.4082 19.35 14.4059 19.154C14.4038 18.9644 14.4026 18.7747 14.4021 18.5851C14.4018 18.5132 14.4011 18.4414 14.4 18.3696C14.3905 17.6977 14.5059 17.147 14.9089 16.6011C14.9507 16.5424 14.9507 16.5424 14.9933 16.4824C15.0507 16.4019 15.1084 16.3216 15.1664 16.2415C15.2707 16.0975 15.3727 15.952 15.4747 15.8065C15.5469 15.7037 15.6194 15.6012 15.6921 15.4989C15.7888 15.3626 15.8852 15.2262 15.9813 15.0895C16.3097 14.6225 16.6424 14.1587 16.9775 13.6964C17.0567 13.587 17.1356 13.4774 17.2145 13.3678C17.3733 13.1472 17.5326 12.9271 17.6921 12.7071C17.7338 12.6495 17.7338 12.6495 17.7763 12.5908C18.0819 12.1694 18.3914 11.7518 18.7175 11.346C18.7553 11.2985 18.7553 11.2985 18.7938 11.2501C18.9675 11.0369 19.1514 10.83 19.4011 10.7051C19.4845 10.7017 19.568 10.701 19.6514 10.7021C19.6934 10.7026 19.7354 10.7031 19.7788 10.7037C19.8153 10.7042 19.8518 10.7046 19.8894 10.7051C19.8934 10.658 19.8974 10.611 19.9015 10.5625C19.9718 9.80099 20.0932 9.04695 20.2132 8.29208C20.2437 8.09951 20.2735 7.90683 20.3031 7.71411C20.3263 7.56382 20.3501 7.41363 20.374 7.26345C20.3852 7.19243 20.3962 7.12138 20.407 7.0503C20.4885 6.51664 20.5659 6.04634 21.0064 5.69737C21.4683 5.38402 22.0533 5.37732 22.5261 5.67582ZM21.4031 6.45707C21.31 6.769 21.2608 7.08893 21.2083 7.40979C21.1994 7.46401 21.1904 7.51824 21.1812 7.57411C21.1522 7.75002 21.1235 7.92599 21.0949 8.10197C21.0802 8.19166 21.0802 8.19166 21.0653 8.28316C20.9406 9.04975 20.8196 9.81671 20.7134 10.5861C20.7081 10.6233 20.7028 10.6606 20.6974 10.6989C20.6828 10.8027 20.6688 10.9066 20.655 11.0105C20.6435 11.0961 20.6435 11.0961 20.6317 11.1834C20.6099 11.5293 20.7337 11.8054 20.8631 12.12C21.0189 12.6284 20.8901 13.0216 20.6519 13.4747C20.6244 13.5258 20.6244 13.5258 20.5963 13.5779C20.5184 13.7227 20.4432 13.8689 20.3677 14.015C20.3292 14.0895 20.2906 14.164 20.2518 14.2383C20.0724 14.5832 19.9055 14.9327 19.7429 15.2858C19.7174 15.3412 19.6919 15.3966 19.6656 15.4537C19.5067 15.801 19.3512 16.1498 19.1997 16.5004C19.1824 16.5404 19.1651 16.5804 19.1473 16.6216C19.0394 16.8753 18.9473 17.1318 18.864 17.3946C18.8322 17.3988 18.8004 17.403 18.7676 17.4073C18.7126 17.4146 18.7126 17.4146 18.6565 17.422C18.5018 17.4425 18.376 17.454 18.2293 17.3946C18.1219 17.0724 18.1972 16.8096 18.3239 16.5065C18.3406 16.4657 18.3573 16.4248 18.3746 16.3827C18.7496 15.4881 19.1732 14.6076 19.6195 13.7466C19.6368 13.7131 19.654 13.6795 19.6718 13.645C19.7532 13.487 19.8354 13.3295 19.9196 13.173C20.1353 12.7607 20.1353 12.7607 20.0847 12.3164C20.0405 12.1834 19.9904 12.0547 19.9352 11.9258C19.9146 11.8761 19.9146 11.8761 19.8935 11.8253C19.86 11.7447 19.8259 11.6643 19.7918 11.584C19.6047 11.5623 19.6047 11.5623 19.5253 11.6478C19.5035 11.6776 19.4816 11.7074 19.4591 11.7381C19.4341 11.7716 19.4091 11.805 19.3834 11.8394C19.3438 11.8943 19.3438 11.8943 19.3035 11.9502C19.2756 11.9878 19.2477 12.0255 19.219 12.0642C19.161 12.1425 19.1033 12.2209 19.0458 12.2995C18.9688 12.4044 18.8908 12.5085 18.8121 12.6123C18.4747 13.0574 18.147 13.5094 17.8211 13.963C17.7418 14.0732 17.662 14.1829 17.5821 14.2926C17.2819 14.7052 16.9893 15.1218 16.7028 15.5439C16.5387 15.7849 16.3704 16.022 16.1968 16.2563C16.0088 16.5106 15.823 16.7663 15.6414 17.0253C15.619 17.0565 15.5967 17.0876 15.5737 17.1198C15.5527 17.15 15.5318 17.1802 15.5101 17.2113C15.4918 17.2373 15.4735 17.2633 15.4546 17.2901C15.23 17.6989 15.2313 18.0732 15.2364 18.5283C15.2366 18.5913 15.2367 18.6542 15.2369 18.7191C15.2376 18.953 15.2397 19.187 15.2416 19.4209C15.2446 19.9446 15.2476 20.4683 15.2507 21.0079C16.3787 21.0079 17.5066 21.0079 18.6687 21.0079C18.7009 20.8306 18.7332 20.6534 18.7664 20.4707C18.8607 20.3224 18.944 20.2084 19.0593 20.0801C19.0898 20.0439 19.1203 20.0077 19.1516 19.9704C19.3025 19.7943 19.4562 19.6335 19.6319 19.4822C19.8507 19.2931 20.0531 19.0901 20.2556 18.8838C20.3252 18.813 20.3949 18.7423 20.4647 18.6717C20.4949 18.6409 20.5252 18.6101 20.5563 18.5784C20.6533 18.4854 20.7521 18.3975 20.8536 18.3097C21.0651 18.1258 21.2655 17.9323 21.4647 17.7352C21.5199 17.6806 21.5199 17.6806 21.5762 17.6249C21.6534 17.5484 21.7305 17.4718 21.8075 17.3952C21.8858 17.3174 21.9644 17.2399 22.0432 17.1625C22.158 17.0498 22.2722 16.9363 22.3863 16.8227C22.4387 16.7717 22.4387 16.7717 22.4921 16.7196C22.934 16.2758 23.174 15.7536 23.1865 15.1234C23.1863 15.0776 23.186 15.0317 23.1857 14.9844C23.1855 14.9332 23.1852 14.8819 23.185 14.829C23.1675 13.9681 23.0369 13.1115 22.9294 12.2583C22.8723 11.8035 22.8174 11.3484 22.7623 10.8934C22.7531 10.8184 22.7531 10.8184 22.7438 10.7418C22.6644 10.0882 22.5906 9.43438 22.528 8.77889C22.5246 8.7434 22.5212 8.70791 22.5177 8.67134C22.4839 8.31582 22.4516 7.96017 22.4206 7.60439C22.4155 7.54758 22.4103 7.49078 22.405 7.43225C22.3956 7.32868 22.3867 7.22507 22.3784 7.1214C22.3553 6.87008 22.3236 6.67467 22.1843 6.45707C22.0499 6.34805 21.9655 6.31374 21.7937 6.29227C21.6185 6.31417 21.5357 6.3392 21.4031 6.45707ZM14.2742 21.8379C14.2742 22.7725 14.2742 23.7071 14.2742 24.67C14.9378 24.6787 14.9378 24.6787 15.6014 24.6873C15.8736 24.6908 16.1457 24.6943 16.4179 24.6979C17.5589 24.7131 18.6994 24.7214 19.8406 24.7188C19.8406 23.7681 19.8406 22.8174 19.8406 21.8379C18.0037 21.8379 16.1668 21.8379 14.2742 21.8379Z" fill="black" fill-opacity="0.6"/>
<path d="M14.6236 0.938066C15.2422 1.37847 15.6696 2.03876 15.8147 2.78591C15.9228 3.54531 15.7891 4.30577 15.3486 4.94331C15.2098 5.11416 15.063 5.27432 14.9091 5.43159C14.8819 5.45954 14.8547 5.48748 14.8267 5.51627C14.7735 5.57011 14.7194 5.62308 14.665 5.67573C14.7224 5.68379 14.7798 5.69184 14.8389 5.70014C15.392 5.82401 15.9121 6.17834 16.3251 6.55464C16.3728 6.59781 16.4205 6.64099 16.4697 6.68548C17.357 7.51579 17.8383 8.64823 17.8936 9.85932C17.9023 10.1565 17.9037 10.4535 17.903 10.7508C17.9029 10.9079 17.904 11.0649 17.9053 11.2219C17.9054 11.3224 17.9054 11.4228 17.9054 11.5233C17.9058 11.5699 17.9063 11.6166 17.9067 11.6646C17.905 11.904 17.9014 12.0753 17.7411 12.2675C17.594 12.3411 17.4422 12.3236 17.2808 12.3235C17.243 12.3237 17.2052 12.3239 17.1662 12.3241C17.0388 12.3246 16.9113 12.3248 16.7839 12.325C16.6928 12.3253 16.6017 12.3256 16.5106 12.326C16.2626 12.3268 16.0146 12.3273 15.7666 12.3277C15.6118 12.328 15.457 12.3283 15.3022 12.3286C14.8183 12.3295 14.3343 12.3302 13.8503 12.3306C13.2909 12.3311 12.7316 12.3324 12.1722 12.3344C11.7403 12.3358 11.3084 12.3366 10.8764 12.3367C10.6183 12.3368 10.3601 12.3373 10.1019 12.3385C9.85913 12.3396 9.61635 12.3398 9.37356 12.3393C9.28435 12.3393 9.19514 12.3396 9.10594 12.3403C8.98433 12.3412 8.86278 12.3408 8.74116 12.3402C8.68797 12.341 8.68797 12.341 8.6337 12.3418C8.4665 12.3396 8.38122 12.3282 8.24809 12.2233C8.13522 12.0739 8.11577 11.9923 8.1149 11.808C8.11459 11.7633 8.11427 11.7186 8.11395 11.6725C8.1139 11.6239 8.11384 11.5753 8.11379 11.5252C8.11363 11.4749 8.11346 11.4247 8.1133 11.3729C8.11305 11.266 8.11293 11.1591 8.11294 11.0522C8.11284 10.8908 8.11195 10.7295 8.11102 10.5681C8.10912 9.88251 8.11794 9.2179 8.34477 8.56269C8.36363 8.50778 8.36363 8.50778 8.38288 8.45176C8.62526 7.77915 8.9864 7.25195 9.48918 6.74995C9.53176 6.70217 9.53176 6.70217 9.5752 6.65344C9.98395 6.20248 10.7308 5.7255 11.3446 5.67573C11.3114 5.6425 11.2782 5.60926 11.2439 5.57502C11.2215 5.55224 11.1991 5.52945 11.176 5.50598C11.1262 5.45685 11.0748 5.40922 11.0219 5.36331C10.4937 4.88599 10.2176 4.18313 10.1562 3.48533C10.1365 2.71519 10.3656 1.99278 10.8747 1.40632C11.8815 0.368869 13.3844 0.165854 14.6236 0.938066ZM11.5688 1.87629C11.1758 2.32429 10.9649 2.83695 10.9863 3.43536C11.0525 3.9971 11.2793 4.47241 11.7038 4.85042C12.2268 5.24206 12.7555 5.34722 13.3954 5.2851C13.9005 5.18268 14.3508 4.8783 14.6619 4.47028C14.9715 3.985 15.0867 3.44671 14.9762 2.88337C14.8432 2.37969 14.5782 1.93266 14.1404 1.63654C13.2811 1.15039 12.3199 1.1711 11.5688 1.87629ZM12.8095 6.26167C12.7614 6.58378 12.7137 6.90595 12.6661 7.22816C12.65 7.33751 12.6337 7.44685 12.6174 7.55617C12.5717 7.86264 12.5273 8.16923 12.4855 8.47626C12.4746 8.5557 12.4632 8.63509 12.4511 8.71437C12.3883 9.09663 12.3883 9.09663 12.5316 9.44103C12.5808 9.4947 12.6318 9.54683 12.6844 9.59724C12.7102 9.62465 12.736 9.65206 12.7627 9.6803C12.8256 9.74664 12.8906 9.81102 12.956 9.87495C13.14 9.79923 13.2534 9.68896 13.3863 9.54231C13.4259 9.5007 13.4655 9.4591 13.5062 9.41623C13.6378 9.14203 13.5835 8.89879 13.5419 8.60542C13.5332 8.54136 13.5332 8.54136 13.5243 8.47602C13.4751 8.11486 13.4218 7.75436 13.368 7.39387C13.3517 7.28385 13.3355 7.17383 13.3192 7.0638C13.2798 6.79639 13.24 6.52901 13.2001 6.26167C13.0712 6.26167 12.9423 6.26167 12.8095 6.26167ZM10.0099 7.39806C9.12123 8.33524 8.93291 9.40106 8.94596 10.644C8.94646 10.726 8.9469 10.808 8.9473 10.89C8.94828 11.0888 8.95019 11.2875 8.95207 11.4863C9.29045 11.4863 9.62883 11.4863 9.97746 11.4863C9.97985 11.3405 9.98224 11.1947 9.98471 11.0445C9.98734 10.9033 9.99014 10.7621 9.99296 10.6208C9.99483 10.5227 9.99653 10.4246 9.99806 10.3264C10.0003 10.1853 10.0031 10.0443 10.0061 9.90318C10.0069 9.8374 10.0069 9.8374 10.0078 9.7703C10.0087 9.72925 10.0097 9.68821 10.0107 9.64592C10.0114 9.60992 10.012 9.57393 10.0127 9.53684C10.0284 9.41964 10.0621 9.34061 10.1239 9.24018C10.2749 9.1647 10.3971 9.17702 10.5634 9.19135C11.1074 9.73532 10.7897 10.7172 10.8075 11.4863C12.2577 11.4863 13.7079 11.4863 15.2021 11.4863C15.2182 10.7934 15.2343 10.1005 15.2509 9.38667C15.4462 9.19135 15.4462 9.19135 15.6202 9.16999C15.788 9.19135 15.788 9.19135 15.8796 9.25849C15.9714 9.39112 15.99 9.4756 15.9933 9.63484C15.9943 9.67589 15.9953 9.71694 15.9963 9.75923C15.9975 9.82576 15.9975 9.82576 15.9988 9.89364C15.9998 9.93902 16.0008 9.9844 16.0018 10.0312C16.005 10.1764 16.0079 10.3217 16.0108 10.467C16.0129 10.5653 16.015 10.6637 16.0172 10.7621C16.0224 11.0035 16.0273 11.2449 16.0321 11.4863C16.3705 11.4863 16.7089 11.4863 17.0575 11.4863C17.0598 11.2545 17.0617 11.0228 17.0629 10.791C17.0634 10.7124 17.064 10.6339 17.0649 10.5553C17.0781 9.31123 16.8284 8.27062 15.9553 7.35076C15.482 6.90113 14.9113 6.52811 14.2626 6.40385C14.219 6.39541 14.1754 6.38696 14.1304 6.37826C14.0808 6.36889 14.0808 6.36889 14.0302 6.35932C14.0352 6.39466 14.0402 6.42999 14.0454 6.46639C14.0925 6.80035 14.1393 7.13437 14.1855 7.46847C14.2093 7.6402 14.2333 7.81191 14.2576 7.98356C14.2856 8.18118 14.3129 8.37889 14.3401 8.57662C14.3533 8.66849 14.3533 8.66849 14.3668 8.76223C14.458 9.43439 14.458 9.43439 14.3152 9.67949C14.2916 9.70497 14.2681 9.73044 14.2438 9.75669C14.2176 9.78592 14.1913 9.81514 14.1643 9.84525C14.1361 9.87519 14.108 9.90513 14.079 9.93598C14.0211 9.99994 13.9632 10.064 13.9055 10.1281C13.8769 10.1594 13.8483 10.1907 13.8189 10.223C13.6672 10.3928 13.5273 10.5718 13.3859 10.7502C13.2712 10.882 13.1879 10.9435 13.014 10.9705C12.6577 10.9216 12.4557 10.5812 12.2457 10.3165C12.1625 10.2133 12.0789 10.1136 11.9909 10.0148C11.9686 9.98936 11.9463 9.96397 11.9234 9.93781C11.8606 9.86641 11.7972 9.79551 11.7337 9.72465C11.4984 9.37539 11.613 8.96983 11.6695 8.57662C11.6826 8.48143 11.6826 8.48143 11.696 8.38431C11.7191 8.21657 11.7427 8.04891 11.7665 7.88126C11.7907 7.70978 11.8144 7.53823 11.8382 7.36669C11.8847 7.03083 11.9319 6.69505 11.9794 6.35932C11.2561 6.35932 10.5051 6.91611 10.0099 7.39806Z" fill="black" fill-opacity="0.6"/>
</g>
<defs>
<clipPath id="clip0_95_3256">
<rect width="25" height="25" fill="white" transform="translate(0.504883 0.5)"/>
</clipPath>
</defs>
</svg>
