<svg width="41" height="42" viewBox="0 0 41 42" fill="none" xmlns="http://www.w3.org/2000/svg">
<path d="M13.6854 36.7916C13.6854 36.6874 13.7375 36.5963 13.8416 36.5181C13.9458 36.44 14.05 36.414 14.1541 36.44C14.2843 36.44 14.3885 36.4921 14.4666 36.5963C14.5448 36.7004 14.5708 36.8046 14.5448 36.9088L13.9588 41.2838H28.1776L27.5916 36.9088C27.5656 36.8046 27.5916 36.7004 27.6698 36.5963C27.7479 36.4921 27.839 36.44 27.9432 36.44C28.0734 36.414 28.1841 36.44 28.2752 36.5181C28.3664 36.5963 28.425 36.6874 28.451 36.7916L29.076 41.2838H32.1229L30.7948 31.2056C30.6385 30.0598 30.2088 29.0181 29.5057 28.0806C28.8026 27.1431 27.9041 26.453 26.8104 26.0103C26.3677 25.802 25.9054 25.6262 25.4237 25.483C24.9419 25.3397 24.4536 25.216 23.9588 25.1119C23.9328 25.1119 23.9067 25.1184 23.8807 25.1314C23.8547 25.1444 23.8286 25.164 23.8026 25.19V26.9869C23.8026 27.7681 23.5291 28.4322 22.9823 28.9791C22.4354 29.5259 21.7713 29.7994 20.9901 29.7994C20.2088 29.7994 19.5448 29.5259 18.9979 28.9791C18.451 28.4322 18.1776 27.7681 18.1776 26.9869V25.19C18.1515 25.164 18.1255 25.1444 18.0994 25.1314C18.0734 25.1184 18.0474 25.1119 18.0213 25.1119C17.5265 25.216 17.0382 25.3397 16.5565 25.483C16.0747 25.6262 15.6125 25.802 15.1698 26.0103C14.076 26.453 13.1776 27.1431 12.4744 28.0806C11.7713 29.0181 11.3416 30.0598 11.1854 31.2056L9.85726 41.2838H13.0604L13.6854 36.7916ZM21.4198 25.815C21.0291 25.841 20.632 25.828 20.2284 25.7759C19.8247 25.7239 19.4406 25.6457 19.076 25.5416V26.9869C19.076 27.5338 19.2648 27.996 19.6424 28.3736C20.02 28.7512 20.4692 28.94 20.9901 28.94C21.5109 28.94 21.9601 28.7512 22.3377 28.3736C22.7153 27.996 22.9041 27.5338 22.9041 26.9869V25.5416C22.6698 25.5936 22.4289 25.6457 22.1815 25.6978C21.9341 25.7499 21.6802 25.789 21.4198 25.815ZM10.0526 31.2056C10.2088 30.0598 10.5994 28.9986 11.2244 28.022C11.8494 27.0455 12.6307 26.2447 13.5682 25.6197C13.0734 25.3853 12.4679 25.3072 11.7518 25.3853C11.0356 25.4634 10.3521 25.8541 9.70101 26.5572C9.70101 26.5572 9.37549 26.1861 8.72445 25.4439C8.0734 24.7017 7.05778 24.7864 5.67757 25.6978L7.51351 21.3619L7.90413 21.5572C8.26872 21.7134 8.6333 21.7265 8.99788 21.5963C9.36247 21.466 9.62288 21.2186 9.77913 20.8541L10.0916 20.1119C10.326 19.591 10.326 19.0767 10.0916 18.5689C9.85726 18.0611 9.46663 17.7291 8.91976 17.5728L7.6307 17.1822C6.8234 16.9478 6.04216 17.0129 5.28695 17.3775C4.53174 17.7421 3.98486 18.315 3.64632 19.0963L1.41976 24.2134C0.977051 25.177 0.866374 26.1796 1.08773 27.2213C1.30908 28.2629 1.81038 29.1483 2.59163 29.8775C3.65934 30.815 4.85075 31.4726 6.16585 31.8502C7.48096 32.2278 8.72445 32.4556 9.89632 32.5338L10.0526 31.2056ZM40.5604 24.2134L38.3338 19.0963C37.9953 18.315 37.4484 17.7421 36.6932 17.3775C35.938 17.0129 35.1567 16.9478 34.3494 17.1822L33.0604 17.5728C32.5135 17.7291 32.1229 18.0611 31.8885 18.5689C31.6541 19.0767 31.6541 19.591 31.8885 20.1119L32.201 20.8541C32.3573 21.2186 32.6177 21.466 32.9823 21.5963C33.3468 21.7265 33.7114 21.7134 34.076 21.5572L34.4666 21.3619L36.3026 25.6978C34.9224 24.7864 33.9067 24.7017 33.2557 25.4439C32.6047 26.1861 32.2791 26.5572 32.2791 26.5572C31.6281 25.8541 30.9445 25.4634 30.2284 25.3853C29.5122 25.3072 28.9067 25.3853 28.4119 25.6197C29.3494 26.2447 30.1307 27.0455 30.7557 28.022C31.3807 28.9986 31.7713 30.0598 31.9276 31.2056L32.0838 32.5338C33.2557 32.4556 34.4992 32.2278 35.8143 31.8502C37.1294 31.4726 38.3208 30.815 39.3885 29.8775C40.1698 29.1483 40.6711 28.2629 40.8924 27.2213C41.1138 26.1796 41.0031 25.177 40.5604 24.2134ZM16.8494 11.2056C16.6151 11.414 16.3221 11.7525 15.9705 12.2213C15.619 12.69 15.326 13.2239 15.0916 13.8228C14.8833 14.3436 14.7531 14.897 14.701 15.483C14.6489 16.0689 14.675 16.6744 14.7791 17.2994C14.8312 17.2994 14.8703 17.2994 14.8963 17.2994C14.9224 17.2994 14.9614 17.2994 15.0135 17.2994L16.5369 14.9556C16.6411 14.8254 16.7778 14.7733 16.9471 14.7994C17.1164 14.8254 17.2401 14.9035 17.3182 15.0338C17.7609 15.5806 18.3013 16.0103 18.9393 16.3228C19.5773 16.6353 20.2479 16.7916 20.951 16.7916C21.6281 16.7916 22.2726 16.6418 22.8846 16.3423C23.4966 16.0429 24.0109 15.6197 24.4276 15.0728V14.6822C24.4276 14.3697 24.3234 14.1093 24.1151 13.9009C23.9067 13.6926 23.6463 13.5884 23.3338 13.5884C23.2297 13.5884 23.132 13.5429 23.0409 13.4517C22.9497 13.3606 22.9041 13.2629 22.9041 13.1588C22.9041 13.0285 22.9497 12.9179 23.0409 12.8267C23.132 12.7356 23.2297 12.69 23.3338 12.69C23.8807 12.69 24.3494 12.8853 24.7401 13.2759C25.1307 13.6666 25.326 14.1353 25.326 14.6822V15.0338L27.1619 17.1041C27.5005 15.3853 27.1554 13.8619 26.1268 12.5338C25.0981 11.2056 23.7896 10.2942 22.201 9.79938C21.3416 9.53896 20.5343 9.49339 19.7791 9.66266C19.0239 9.83193 18.3729 10.2942 17.826 11.0494C17.826 11.0494 17.7153 11.0168 17.494 10.9517C17.2726 10.8866 17.0578 10.9713 16.8494 11.2056ZM27.0057 18.1978L24.8963 15.8931C24.4015 16.466 23.8091 16.9022 23.119 17.2017C22.4289 17.5012 21.7062 17.664 20.951 17.69C20.1958 17.69 19.4731 17.5403 18.783 17.2408C18.0929 16.9413 17.4875 16.5181 16.9666 15.9713L15.4432 18.1978C15.1047 18.1457 14.8052 18.2239 14.5448 18.4322C14.2843 18.6405 14.1541 18.914 14.1541 19.2525C14.1541 19.591 14.2843 19.8645 14.5448 20.0728C14.8052 20.2811 15.1047 20.3463 15.4432 20.2681C15.5994 21.6223 16.2375 22.7356 17.3573 23.608C18.4771 24.4804 19.688 24.9166 20.9901 24.9166C22.4224 24.9166 23.6268 24.4739 24.6034 23.5884C25.5799 22.703 26.2375 21.5963 26.576 20.2681C26.8885 20.3463 27.175 20.2746 27.4354 20.0533C27.6958 19.8319 27.826 19.565 27.826 19.2525C27.826 18.9921 27.7479 18.7642 27.5916 18.5689C27.4354 18.3736 27.2401 18.2499 27.0057 18.1978ZM20.9901 6.24469C20.8599 6.24469 20.7557 6.20563 20.6776 6.1275C20.5994 6.04938 20.5604 5.94521 20.5604 5.815V2.02594C20.5604 1.92177 20.5994 1.82412 20.6776 1.73297C20.7557 1.64183 20.8599 1.59625 20.9901 1.59625C21.1203 1.59625 21.2244 1.64183 21.3026 1.73297C21.3807 1.82412 21.4198 1.92177 21.4198 2.02594V5.815C21.4198 5.94521 21.3807 6.04938 21.3026 6.1275C21.2244 6.20563 21.1203 6.24469 20.9901 6.24469ZM13.8807 8.15875C13.8026 8.15875 13.731 8.13922 13.6659 8.10016C13.6007 8.0611 13.5422 8.01552 13.4901 7.96344L11.6151 4.68219C11.5369 4.57802 11.5174 4.46735 11.5565 4.35016C11.5955 4.23297 11.6672 4.14833 11.7713 4.09625C11.8755 4.04417 11.9797 4.03115 12.0838 4.05719C12.188 4.08323 12.2791 4.14833 12.3573 4.2525L14.2323 7.53375C14.3104 7.66396 14.3104 7.80068 14.2323 7.94391C14.1541 8.08714 14.0369 8.15875 13.8807 8.15875ZM8.64632 13.3931C8.62028 13.3931 8.58773 13.3866 8.54867 13.3736C8.5096 13.3606 8.47705 13.341 8.45101 13.315L5.16976 11.44C5.06559 11.3879 4.99398 11.3033 4.95492 11.1861C4.91585 11.0689 4.93538 10.9582 5.01351 10.8541C5.06559 10.7499 5.15023 10.6848 5.26742 10.6588C5.3846 10.6327 5.49528 10.6457 5.59945 10.6978L8.84163 12.5728C9.02393 12.677 9.08903 12.8397 9.03695 13.0611C8.98486 13.2824 8.85465 13.3931 8.64632 13.3931ZM33.3338 13.3931C33.1255 13.3931 32.9953 13.2824 32.9432 13.0611C32.8911 12.8397 32.9562 12.677 33.1385 12.5728L36.3807 10.6978C36.4849 10.6457 36.5955 10.6327 36.7127 10.6588C36.8299 10.6848 36.9146 10.7499 36.9666 10.8541C37.0448 10.9582 37.0643 11.0689 37.0252 11.1861C36.9862 11.3033 36.9146 11.3879 36.8104 11.44L33.5682 13.315C33.5161 13.341 33.4705 13.3606 33.4315 13.3736C33.3924 13.3866 33.3599 13.3931 33.3338 13.3931ZM28.0994 8.15875C27.9432 8.15875 27.826 8.08714 27.7479 7.94391C27.6698 7.80068 27.6698 7.66396 27.7479 7.53375L29.6229 4.2525C29.701 4.14833 29.7922 4.07672 29.8963 4.03766C30.0005 3.9986 30.1047 4.01813 30.2088 4.09625C30.313 4.14833 30.3846 4.23297 30.4237 4.35016C30.4627 4.46735 30.4432 4.57802 30.3651 4.68219L28.4901 7.96344C28.438 8.01552 28.3794 8.0611 28.3143 8.10016C28.2492 8.13922 28.1776 8.15875 28.0994 8.15875Z" fill="#39D4D6"/>
</svg>
