<svg width="20" height="18" viewBox="0 0 20 18" fill="none" xmlns="http://www.w3.org/2000/svg">
<path d="M14.9902 4V3C14.9902 1.3 13.6902 0 11.9902 0H7.99023C6.29023 0 4.99023 1.3 4.99023 3V4H-0.00976562V8C-0.00976562 9.7 1.29023 11 2.99023 11H16.9902C18.6902 11 19.9902 9.7 19.9902 8V4H14.9902ZM6.99023 3C6.99023 2.4 7.39023 2 7.99023 2H11.9902C12.5902 2 12.9902 2.4 12.9902 3V4H6.99023V3ZM16.9902 12C18.1902 12 19.2902 11.5 19.9902 10.6V15C19.9902 16.7 18.6902 18 16.9902 18H2.99023C1.29023 18 -0.00976562 16.7 -0.00976562 15V10.6C0.690234 11.5 1.79023 12 2.99023 12H16.9902Z" fill="black" fill-opacity="0.6"/>
</svg>
